G04 #@! TF.FileFunction,Legend,Top*
%FSLAX46Y46*%
G04 Gerber Fmt 4.6, Leading zero omitted, Abs format (unit mm)*
G04 Created by KiCad (PCBNEW 4.0.4+dfsg1-stable) date Tue Jan 31 21:33:05 2017*
%MOMM*%
%LPD*%
G01*
G04 APERTURE LIST*
%ADD10C,0.100000*%
%ADD11C,0.150000*%
G04 APERTURE END LIST*
D10*
D11*
X161330000Y-124595000D02*
X161330000Y-125595000D01*
X159980000Y-125595000D02*
X159980000Y-124595000D01*
X167007214Y-118030000D02*
G75*
G03X167007214Y-118030000I-447214J0D01*
G01*
X159560000Y-108030000D02*
X158560000Y-113030000D01*
X158560000Y-113030000D02*
X157560000Y-118030000D01*
X157560000Y-118030000D02*
X164560000Y-118030000D01*
X164560000Y-118030000D02*
X165560000Y-113030000D01*
X166560000Y-108030000D02*
X165560000Y-113030000D01*
X165560000Y-113030000D02*
X158560000Y-113030000D01*
X159560000Y-108030000D02*
X166560000Y-108030000D01*
X168860000Y-122630000D02*
X156260000Y-122630000D01*
X156260000Y-107330000D02*
X156260000Y-118730000D01*
X168860000Y-107330000D02*
X168860000Y-118730000D01*
X156260000Y-103430000D02*
X168860000Y-103430000D01*
X141607214Y-118030000D02*
G75*
G03X141607214Y-118030000I-447214J0D01*
G01*
X134160000Y-108030000D02*
X133160000Y-113030000D01*
X133160000Y-113030000D02*
X132160000Y-118030000D01*
X132160000Y-118030000D02*
X139160000Y-118030000D01*
X139160000Y-118030000D02*
X140160000Y-113030000D01*
X141160000Y-108030000D02*
X140160000Y-113030000D01*
X140160000Y-113030000D02*
X133160000Y-113030000D01*
X134160000Y-108030000D02*
X141160000Y-108030000D01*
X143460000Y-122630000D02*
X130860000Y-122630000D01*
X130860000Y-107330000D02*
X130860000Y-118730000D01*
X143460000Y-107330000D02*
X143460000Y-118730000D01*
X130860000Y-103430000D02*
X143460000Y-103430000D01*
X154307214Y-118030000D02*
G75*
G03X154307214Y-118030000I-447214J0D01*
G01*
X146860000Y-108030000D02*
X145860000Y-113030000D01*
X145860000Y-113030000D02*
X144860000Y-118030000D01*
X144860000Y-118030000D02*
X151860000Y-118030000D01*
X151860000Y-118030000D02*
X152860000Y-113030000D01*
X153860000Y-108030000D02*
X152860000Y-113030000D01*
X152860000Y-113030000D02*
X145860000Y-113030000D01*
X146860000Y-108030000D02*
X153860000Y-108030000D01*
X156160000Y-122630000D02*
X143560000Y-122630000D01*
X143560000Y-107330000D02*
X143560000Y-118730000D01*
X156160000Y-107330000D02*
X156160000Y-118730000D01*
X143560000Y-103430000D02*
X156160000Y-103430000D01*
X120459500Y-93289120D02*
X120459500Y-102290880D01*
X116959380Y-93289120D02*
X116959380Y-102290880D01*
X116959380Y-102290880D02*
X131460240Y-102290880D01*
X131460240Y-102290880D02*
X131460240Y-93289120D01*
X131460240Y-93289120D02*
X116959380Y-93289120D01*
X144680000Y-93500000D02*
X144680000Y-99500000D01*
X144680000Y-99500000D02*
X155040000Y-99500000D01*
X155040000Y-99500000D02*
X155040000Y-93500000D01*
X155040000Y-93500000D02*
X144680000Y-93500000D01*
X146050000Y-99500000D02*
X146050000Y-98500000D01*
X146050000Y-98500000D02*
X153670000Y-98500000D01*
X153670000Y-98500000D02*
X153670000Y-99500000D01*
X146050000Y-98500000D02*
X146300000Y-98070000D01*
X146300000Y-98070000D02*
X153420000Y-98070000D01*
X153420000Y-98070000D02*
X153670000Y-98500000D01*
X146300000Y-99500000D02*
X146300000Y-98500000D01*
X153420000Y-99500000D02*
X153420000Y-98500000D01*
X145250000Y-93500000D02*
X145250000Y-94120000D01*
X145250000Y-94120000D02*
X146850000Y-94120000D01*
X146850000Y-94120000D02*
X146850000Y-93500000D01*
X147790000Y-93500000D02*
X147790000Y-94120000D01*
X147790000Y-94120000D02*
X149390000Y-94120000D01*
X149390000Y-94120000D02*
X149390000Y-93500000D01*
X150330000Y-93500000D02*
X150330000Y-94120000D01*
X150330000Y-94120000D02*
X151930000Y-94120000D01*
X151930000Y-94120000D02*
X151930000Y-93500000D01*
X152870000Y-93500000D02*
X152870000Y-94120000D01*
X152870000Y-94120000D02*
X154470000Y-94120000D01*
X154470000Y-94120000D02*
X154470000Y-93500000D01*
X135839200Y-98830180D02*
X136540240Y-98830180D01*
X136540240Y-98830180D02*
X136540240Y-99079100D01*
X136540240Y-101629160D02*
X136540240Y-101829820D01*
X136540240Y-101829820D02*
X135839200Y-101829820D01*
X140919200Y-96290180D02*
X141620240Y-96290180D01*
X141620240Y-96290180D02*
X141620240Y-96539100D01*
X141620240Y-99089160D02*
X141620240Y-99289820D01*
X141620240Y-99289820D02*
X140919200Y-99289820D01*
X135839200Y-93750180D02*
X136540240Y-93750180D01*
X136540240Y-93750180D02*
X136540240Y-93999100D01*
X136540240Y-96549160D02*
X136540240Y-96749820D01*
X136540240Y-96749820D02*
X135839200Y-96749820D01*
X155710000Y-133310000D02*
X156710000Y-133310000D01*
X156710000Y-134660000D02*
X155710000Y-134660000D01*
X156710000Y-138470000D02*
X155710000Y-138470000D01*
X155710000Y-137120000D02*
X156710000Y-137120000D01*
X155710000Y-135215000D02*
X156710000Y-135215000D01*
X156710000Y-136565000D02*
X155710000Y-136565000D01*
X156710000Y-132755000D02*
X155710000Y-132755000D01*
X155710000Y-131405000D02*
X156710000Y-131405000D01*
X178300000Y-114975000D02*
X177300000Y-114975000D01*
X177300000Y-113625000D02*
X178300000Y-113625000D01*
X178300000Y-102275000D02*
X177300000Y-102275000D01*
X177300000Y-100925000D02*
X178300000Y-100925000D01*
X178300000Y-125135000D02*
X177300000Y-125135000D01*
X177300000Y-123785000D02*
X178300000Y-123785000D01*
X165140000Y-124595000D02*
X165140000Y-125595000D01*
X163790000Y-125595000D02*
X163790000Y-124595000D01*
X163235000Y-124595000D02*
X163235000Y-125595000D01*
X161885000Y-125595000D02*
X161885000Y-124595000D01*
X139740000Y-124595000D02*
X139740000Y-125595000D01*
X138390000Y-125595000D02*
X138390000Y-124595000D01*
X135930000Y-124595000D02*
X135930000Y-125595000D01*
X134580000Y-125595000D02*
X134580000Y-124595000D01*
X141645000Y-124595000D02*
X141645000Y-125595000D01*
X140295000Y-125595000D02*
X140295000Y-124595000D01*
X137835000Y-124595000D02*
X137835000Y-125595000D01*
X136485000Y-125595000D02*
X136485000Y-124595000D01*
X167045000Y-124595000D02*
X167045000Y-125595000D01*
X165695000Y-125595000D02*
X165695000Y-124595000D01*
X150945000Y-125915000D02*
X150720000Y-125915000D01*
X150945000Y-133165000D02*
X150645000Y-133165000D01*
X143695000Y-133165000D02*
X143995000Y-133165000D01*
X143695000Y-125915000D02*
X143995000Y-125915000D01*
X150945000Y-125915000D02*
X150945000Y-126215000D01*
X143695000Y-125915000D02*
X143695000Y-126215000D01*
X143695000Y-133165000D02*
X143695000Y-132865000D01*
X150945000Y-133165000D02*
X150945000Y-132865000D01*
X150720000Y-125915000D02*
X150720000Y-124690000D01*
X143975000Y-136606000D02*
X143675000Y-136606000D01*
X143675000Y-136606000D02*
X143675000Y-136306000D01*
X141775000Y-137506000D02*
X143975000Y-137506000D01*
X143975000Y-137506000D02*
X143975000Y-136306000D01*
X143975000Y-136306000D02*
X141775000Y-136306000D01*
X141775000Y-136306000D02*
X141775000Y-137506000D01*
X157675000Y-123660000D02*
X156875000Y-123660000D01*
X157675000Y-130310000D02*
X157675000Y-123660000D01*
X157675000Y-130310000D02*
X154725000Y-130310000D01*
X154725000Y-130310000D02*
X154725000Y-125760000D01*
X156075000Y-123660000D02*
X154725000Y-123660000D01*
X154725000Y-123660000D02*
X154725000Y-124960000D01*
X139989000Y-137256000D02*
X139989000Y-136556000D01*
X141189000Y-136556000D02*
X141189000Y-137256000D01*
X132750000Y-125445000D02*
X132750000Y-124745000D01*
X133950000Y-124745000D02*
X133950000Y-125445000D01*
X144561000Y-137256000D02*
X144561000Y-136556000D01*
X145761000Y-136556000D02*
X145761000Y-137256000D01*
X147670000Y-124552000D02*
X146970000Y-124552000D01*
X146970000Y-123352000D02*
X147670000Y-123352000D01*
X142875000Y-94365000D02*
X142875000Y-94115000D01*
X142875000Y-94865000D02*
X142875000Y-95115000D01*
X142875000Y-94865000D02*
X142525000Y-94365000D01*
X142525000Y-94365000D02*
X143225000Y-94365000D01*
X143225000Y-94365000D02*
X142875000Y-94865000D01*
X142525000Y-94865000D02*
X143225000Y-94865000D01*
X143675000Y-95915000D02*
X143675000Y-93515000D01*
X142075000Y-95915000D02*
X142075000Y-93515000D01*
X179180000Y-137160000D02*
G75*
G03X179180000Y-137160000I-9000000J0D01*
G01*
X163680000Y-127660000D02*
X176680000Y-127660000D01*
X179680000Y-130660000D02*
X176680000Y-127660000D01*
X160680000Y-130660000D02*
X163680000Y-127660000D01*
X160680000Y-130660000D02*
X160680000Y-146660000D01*
X160680000Y-146660000D02*
X179680000Y-146660000D01*
X179680000Y-146660000D02*
X179680000Y-130660000D01*
X158860000Y-148590000D02*
G75*
G03X158860000Y-148590000I-9000000J0D01*
G01*
X143360000Y-139090000D02*
X156360000Y-139090000D01*
X159360000Y-142090000D02*
X156360000Y-139090000D01*
X140360000Y-142090000D02*
X143360000Y-139090000D01*
X140360000Y-142090000D02*
X140360000Y-158090000D01*
X140360000Y-158090000D02*
X159360000Y-158090000D01*
X159360000Y-158090000D02*
X159360000Y-142090000D01*
X138540000Y-137160000D02*
G75*
G03X138540000Y-137160000I-9000000J0D01*
G01*
X123040000Y-127660000D02*
X136040000Y-127660000D01*
X139040000Y-130660000D02*
X136040000Y-127660000D01*
X120040000Y-130660000D02*
X123040000Y-127660000D01*
X120040000Y-130660000D02*
X120040000Y-146660000D01*
X120040000Y-146660000D02*
X139040000Y-146660000D01*
X139040000Y-146660000D02*
X139040000Y-130660000D01*
X129460000Y-116880000D02*
X128210000Y-116880000D01*
X129460000Y-116880000D02*
X129460000Y-115380000D01*
X119460000Y-116880000D02*
X119460000Y-115380000D01*
X119460000Y-116880000D02*
X120710000Y-116880000D01*
X179550714Y-106680000D02*
G75*
G03X179550714Y-106680000I-1750714J0D01*
G01*
X181025000Y-103455000D02*
X181025000Y-103480000D01*
X181025000Y-109905000D02*
X181025000Y-109880000D01*
X174575000Y-109905000D02*
X174575000Y-109880000D01*
X174575000Y-103480000D02*
X174575000Y-103455000D01*
X181025000Y-105380000D02*
X181025000Y-107980000D01*
X174575000Y-103455000D02*
X181025000Y-103455000D01*
X174575000Y-105380000D02*
X174575000Y-107980000D01*
X174575000Y-109905000D02*
X181025000Y-109905000D01*
X179550714Y-119380000D02*
G75*
G03X179550714Y-119380000I-1750714J0D01*
G01*
X181025000Y-116155000D02*
X181025000Y-116180000D01*
X181025000Y-122605000D02*
X181025000Y-122580000D01*
X174575000Y-122605000D02*
X174575000Y-122580000D01*
X174575000Y-116180000D02*
X174575000Y-116155000D01*
X181025000Y-118080000D02*
X181025000Y-120680000D01*
X174575000Y-116155000D02*
X181025000Y-116155000D01*
X174575000Y-118080000D02*
X174575000Y-120680000D01*
X174575000Y-122605000D02*
X181025000Y-122605000D01*
X164310714Y-96520000D02*
G75*
G03X164310714Y-96520000I-1750714J0D01*
G01*
X165785000Y-93295000D02*
X165785000Y-93320000D01*
X165785000Y-99745000D02*
X165785000Y-99720000D01*
X159335000Y-99745000D02*
X159335000Y-99720000D01*
X159335000Y-93320000D02*
X159335000Y-93295000D01*
X165785000Y-95220000D02*
X165785000Y-97820000D01*
X159335000Y-93295000D02*
X165785000Y-93295000D01*
X159335000Y-95220000D02*
X159335000Y-97820000D01*
X159335000Y-99745000D02*
X165785000Y-99745000D01*
X176700000Y-112310000D02*
X178600000Y-112310000D01*
X176700000Y-111210000D02*
X178600000Y-111210000D01*
X177600000Y-111760000D02*
X178050000Y-111760000D01*
X177550000Y-111510000D02*
X177550000Y-112010000D01*
X177550000Y-111760000D02*
X177800000Y-111510000D01*
X177800000Y-111510000D02*
X177800000Y-112010000D01*
X177800000Y-112010000D02*
X177550000Y-111760000D01*
X129500000Y-160310000D02*
X129500000Y-160810000D01*
X134000000Y-156310000D02*
G75*
G03X134000000Y-156310000I-2000000J0D01*
G01*
X129000000Y-156310000D02*
G75*
G03X129000000Y-156310000I-2000000J0D01*
G01*
X124500000Y-158810000D02*
X134500000Y-158810000D01*
X124500000Y-153910000D02*
X134500000Y-153910000D01*
X124500000Y-160310000D02*
X134500000Y-160310000D01*
X124500000Y-160810000D02*
X134500000Y-160810000D01*
X134500000Y-160810000D02*
X134500000Y-151010000D01*
X134500000Y-151010000D02*
X124500000Y-151010000D01*
X124500000Y-151010000D02*
X124500000Y-160810000D01*
X177100000Y-156310000D02*
G75*
G03X177100000Y-156310000I-2000000J0D01*
G01*
X172600000Y-160310000D02*
X172600000Y-160810000D01*
X167600000Y-160310000D02*
X167600000Y-160810000D01*
X172100000Y-156310000D02*
G75*
G03X172100000Y-156310000I-2000000J0D01*
G01*
X167100000Y-156310000D02*
G75*
G03X167100000Y-156310000I-2000000J0D01*
G01*
X162600000Y-158810000D02*
X177600000Y-158810000D01*
X162600000Y-153910000D02*
X177600000Y-153910000D01*
X162600000Y-160310000D02*
X177600000Y-160310000D01*
X162600000Y-160810000D02*
X177600000Y-160810000D01*
X177600000Y-160810000D02*
X177600000Y-151010000D01*
X177600000Y-151010000D02*
X162600000Y-151010000D01*
X162600000Y-151010000D02*
X162600000Y-160810000D01*
X169585000Y-96020000D02*
X169585000Y-97020000D01*
X168235000Y-97020000D02*
X168235000Y-96020000D01*
X159207381Y-125261666D02*
X158731190Y-125595000D01*
X159207381Y-125833095D02*
X158207381Y-125833095D01*
X158207381Y-125452142D01*
X158255000Y-125356904D01*
X158302619Y-125309285D01*
X158397857Y-125261666D01*
X158540714Y-125261666D01*
X158635952Y-125309285D01*
X158683571Y-125356904D01*
X158731190Y-125452142D01*
X158731190Y-125833095D01*
X158635952Y-124690238D02*
X158588333Y-124785476D01*
X158540714Y-124833095D01*
X158445476Y-124880714D01*
X158397857Y-124880714D01*
X158302619Y-124833095D01*
X158255000Y-124785476D01*
X158207381Y-124690238D01*
X158207381Y-124499761D01*
X158255000Y-124404523D01*
X158302619Y-124356904D01*
X158397857Y-124309285D01*
X158445476Y-124309285D01*
X158540714Y-124356904D01*
X158588333Y-124404523D01*
X158635952Y-124499761D01*
X158635952Y-124690238D01*
X158683571Y-124785476D01*
X158731190Y-124833095D01*
X158826429Y-124880714D01*
X159016905Y-124880714D01*
X159112143Y-124833095D01*
X159159762Y-124785476D01*
X159207381Y-124690238D01*
X159207381Y-124499761D01*
X159159762Y-124404523D01*
X159112143Y-124356904D01*
X159016905Y-124309285D01*
X158826429Y-124309285D01*
X158731190Y-124356904D01*
X158683571Y-124404523D01*
X158635952Y-124499761D01*
X151488571Y-107396667D02*
X151964762Y-107396667D01*
X151393333Y-107682381D02*
X151726666Y-106682381D01*
X152060000Y-107682381D01*
X152726667Y-107158571D02*
X152393333Y-107158571D01*
X152393333Y-107682381D02*
X152393333Y-106682381D01*
X152869524Y-106682381D01*
X153583810Y-107158571D02*
X153250476Y-107158571D01*
X153250476Y-107682381D02*
X153250476Y-106682381D01*
X153726667Y-106682381D01*
X154012381Y-106682381D02*
X154631429Y-106682381D01*
X154298095Y-107063333D01*
X154440953Y-107063333D01*
X154536191Y-107110952D01*
X154583810Y-107158571D01*
X154631429Y-107253810D01*
X154631429Y-107491905D01*
X154583810Y-107587143D01*
X154536191Y-107634762D01*
X154440953Y-107682381D01*
X154155238Y-107682381D01*
X154060000Y-107634762D01*
X154012381Y-107587143D01*
X126088571Y-107396667D02*
X126564762Y-107396667D01*
X125993333Y-107682381D02*
X126326666Y-106682381D01*
X126660000Y-107682381D01*
X127326667Y-107158571D02*
X126993333Y-107158571D01*
X126993333Y-107682381D02*
X126993333Y-106682381D01*
X127469524Y-106682381D01*
X128183810Y-107158571D02*
X127850476Y-107158571D01*
X127850476Y-107682381D02*
X127850476Y-106682381D01*
X128326667Y-106682381D01*
X129231429Y-107682381D02*
X128660000Y-107682381D01*
X128945714Y-107682381D02*
X128945714Y-106682381D01*
X128850476Y-106825238D01*
X128755238Y-106920476D01*
X128660000Y-106968095D01*
X138788571Y-107396667D02*
X139264762Y-107396667D01*
X138693333Y-107682381D02*
X139026666Y-106682381D01*
X139360000Y-107682381D01*
X140026667Y-107158571D02*
X139693333Y-107158571D01*
X139693333Y-107682381D02*
X139693333Y-106682381D01*
X140169524Y-106682381D01*
X140883810Y-107158571D02*
X140550476Y-107158571D01*
X140550476Y-107682381D02*
X140550476Y-106682381D01*
X141026667Y-106682381D01*
X141360000Y-106777619D02*
X141407619Y-106730000D01*
X141502857Y-106682381D01*
X141740953Y-106682381D01*
X141836191Y-106730000D01*
X141883810Y-106777619D01*
X141931429Y-106872857D01*
X141931429Y-106968095D01*
X141883810Y-107110952D01*
X141312381Y-107682381D01*
X141931429Y-107682381D01*
X134916183Y-99004285D02*
X134963802Y-99051904D01*
X135011421Y-99194761D01*
X135011421Y-99289999D01*
X134963802Y-99432857D01*
X134868564Y-99528095D01*
X134773326Y-99575714D01*
X134582850Y-99623333D01*
X134439992Y-99623333D01*
X134249516Y-99575714D01*
X134154278Y-99528095D01*
X134059040Y-99432857D01*
X134011421Y-99289999D01*
X134011421Y-99194761D01*
X134059040Y-99051904D01*
X134106659Y-99004285D01*
X134011421Y-98385238D02*
X134011421Y-98194761D01*
X134059040Y-98099523D01*
X134154278Y-98004285D01*
X134344754Y-97956666D01*
X134678088Y-97956666D01*
X134868564Y-98004285D01*
X134963802Y-98099523D01*
X135011421Y-98194761D01*
X135011421Y-98385238D01*
X134963802Y-98480476D01*
X134868564Y-98575714D01*
X134678088Y-98623333D01*
X134344754Y-98623333D01*
X134154278Y-98575714D01*
X134059040Y-98480476D01*
X134011421Y-98385238D01*
X135011421Y-97528095D02*
X134011421Y-97528095D01*
X135011421Y-96956666D01*
X134011421Y-96956666D01*
X135011421Y-95956666D02*
X135011421Y-96528095D01*
X135011421Y-96242381D02*
X134011421Y-96242381D01*
X134154278Y-96337619D01*
X134249516Y-96432857D01*
X134297135Y-96528095D01*
X146311905Y-92472381D02*
X146311905Y-91472381D01*
X146692858Y-91472381D01*
X146788096Y-91520000D01*
X146835715Y-91567619D01*
X146883334Y-91662857D01*
X146883334Y-91805714D01*
X146835715Y-91900952D01*
X146788096Y-91948571D01*
X146692858Y-91996190D01*
X146311905Y-91996190D01*
X147835715Y-92472381D02*
X147264286Y-92472381D01*
X147550000Y-92472381D02*
X147550000Y-91472381D01*
X147454762Y-91615238D01*
X147359524Y-91710476D01*
X147264286Y-91758095D01*
X140247619Y-100425238D02*
X140200000Y-100520476D01*
X140104762Y-100615714D01*
X139961905Y-100758571D01*
X139914286Y-100853810D01*
X139914286Y-100949048D01*
X140152381Y-100901429D02*
X140104762Y-100996667D01*
X140009524Y-101091905D01*
X139819048Y-101139524D01*
X139485714Y-101139524D01*
X139295238Y-101091905D01*
X139200000Y-100996667D01*
X139152381Y-100901429D01*
X139152381Y-100710952D01*
X139200000Y-100615714D01*
X139295238Y-100520476D01*
X139485714Y-100472857D01*
X139819048Y-100472857D01*
X140009524Y-100520476D01*
X140104762Y-100615714D01*
X140152381Y-100710952D01*
X140152381Y-100901429D01*
X140152381Y-99520476D02*
X140152381Y-100091905D01*
X140152381Y-99806191D02*
X139152381Y-99806191D01*
X139295238Y-99901429D01*
X139390476Y-99996667D01*
X139438095Y-100091905D01*
X145327619Y-97885238D02*
X145280000Y-97980476D01*
X145184762Y-98075714D01*
X145041905Y-98218571D01*
X144994286Y-98313810D01*
X144994286Y-98409048D01*
X145232381Y-98361429D02*
X145184762Y-98456667D01*
X145089524Y-98551905D01*
X144899048Y-98599524D01*
X144565714Y-98599524D01*
X144375238Y-98551905D01*
X144280000Y-98456667D01*
X144232381Y-98361429D01*
X144232381Y-98170952D01*
X144280000Y-98075714D01*
X144375238Y-97980476D01*
X144565714Y-97932857D01*
X144899048Y-97932857D01*
X145089524Y-97980476D01*
X145184762Y-98075714D01*
X145232381Y-98170952D01*
X145232381Y-98361429D01*
X144327619Y-97551905D02*
X144280000Y-97504286D01*
X144232381Y-97409048D01*
X144232381Y-97170952D01*
X144280000Y-97075714D01*
X144327619Y-97028095D01*
X144422857Y-96980476D01*
X144518095Y-96980476D01*
X144660952Y-97028095D01*
X145232381Y-97599524D01*
X145232381Y-96980476D01*
X140247619Y-95345238D02*
X140200000Y-95440476D01*
X140104762Y-95535714D01*
X139961905Y-95678571D01*
X139914286Y-95773810D01*
X139914286Y-95869048D01*
X140152381Y-95821429D02*
X140104762Y-95916667D01*
X140009524Y-96011905D01*
X139819048Y-96059524D01*
X139485714Y-96059524D01*
X139295238Y-96011905D01*
X139200000Y-95916667D01*
X139152381Y-95821429D01*
X139152381Y-95630952D01*
X139200000Y-95535714D01*
X139295238Y-95440476D01*
X139485714Y-95392857D01*
X139819048Y-95392857D01*
X140009524Y-95440476D01*
X140104762Y-95535714D01*
X140152381Y-95630952D01*
X140152381Y-95821429D01*
X139152381Y-95059524D02*
X139152381Y-94440476D01*
X139533333Y-94773810D01*
X139533333Y-94630952D01*
X139580952Y-94535714D01*
X139628571Y-94488095D01*
X139723810Y-94440476D01*
X139961905Y-94440476D01*
X140057143Y-94488095D01*
X140104762Y-94535714D01*
X140152381Y-94630952D01*
X140152381Y-94916667D01*
X140104762Y-95011905D01*
X140057143Y-95059524D01*
X156043334Y-136337381D02*
X155710000Y-135861190D01*
X155471905Y-136337381D02*
X155471905Y-135337381D01*
X155852858Y-135337381D01*
X155948096Y-135385000D01*
X155995715Y-135432619D01*
X156043334Y-135527857D01*
X156043334Y-135670714D01*
X155995715Y-135765952D01*
X155948096Y-135813571D01*
X155852858Y-135861190D01*
X155471905Y-135861190D01*
X156995715Y-136337381D02*
X156424286Y-136337381D01*
X156710000Y-136337381D02*
X156710000Y-135337381D01*
X156614762Y-135480238D01*
X156519524Y-135575476D01*
X156424286Y-135623095D01*
X156043334Y-136347381D02*
X155710000Y-135871190D01*
X155471905Y-136347381D02*
X155471905Y-135347381D01*
X155852858Y-135347381D01*
X155948096Y-135395000D01*
X155995715Y-135442619D01*
X156043334Y-135537857D01*
X156043334Y-135680714D01*
X155995715Y-135775952D01*
X155948096Y-135823571D01*
X155852858Y-135871190D01*
X155471905Y-135871190D01*
X156424286Y-135442619D02*
X156471905Y-135395000D01*
X156567143Y-135347381D01*
X156805239Y-135347381D01*
X156900477Y-135395000D01*
X156948096Y-135442619D01*
X156995715Y-135537857D01*
X156995715Y-135633095D01*
X156948096Y-135775952D01*
X156376667Y-136347381D01*
X156995715Y-136347381D01*
X156043334Y-138242381D02*
X155710000Y-137766190D01*
X155471905Y-138242381D02*
X155471905Y-137242381D01*
X155852858Y-137242381D01*
X155948096Y-137290000D01*
X155995715Y-137337619D01*
X156043334Y-137432857D01*
X156043334Y-137575714D01*
X155995715Y-137670952D01*
X155948096Y-137718571D01*
X155852858Y-137766190D01*
X155471905Y-137766190D01*
X156376667Y-137242381D02*
X156995715Y-137242381D01*
X156662381Y-137623333D01*
X156805239Y-137623333D01*
X156900477Y-137670952D01*
X156948096Y-137718571D01*
X156995715Y-137813810D01*
X156995715Y-138051905D01*
X156948096Y-138147143D01*
X156900477Y-138194762D01*
X156805239Y-138242381D01*
X156519524Y-138242381D01*
X156424286Y-138194762D01*
X156376667Y-138147143D01*
X156043334Y-130632381D02*
X155710000Y-130156190D01*
X155471905Y-130632381D02*
X155471905Y-129632381D01*
X155852858Y-129632381D01*
X155948096Y-129680000D01*
X155995715Y-129727619D01*
X156043334Y-129822857D01*
X156043334Y-129965714D01*
X155995715Y-130060952D01*
X155948096Y-130108571D01*
X155852858Y-130156190D01*
X155471905Y-130156190D01*
X156900477Y-129965714D02*
X156900477Y-130632381D01*
X156662381Y-129584762D02*
X156424286Y-130299048D01*
X157043334Y-130299048D01*
X177633334Y-112852381D02*
X177300000Y-112376190D01*
X177061905Y-112852381D02*
X177061905Y-111852381D01*
X177442858Y-111852381D01*
X177538096Y-111900000D01*
X177585715Y-111947619D01*
X177633334Y-112042857D01*
X177633334Y-112185714D01*
X177585715Y-112280952D01*
X177538096Y-112328571D01*
X177442858Y-112376190D01*
X177061905Y-112376190D01*
X178538096Y-111852381D02*
X178061905Y-111852381D01*
X178014286Y-112328571D01*
X178061905Y-112280952D01*
X178157143Y-112233333D01*
X178395239Y-112233333D01*
X178490477Y-112280952D01*
X178538096Y-112328571D01*
X178585715Y-112423810D01*
X178585715Y-112661905D01*
X178538096Y-112757143D01*
X178490477Y-112804762D01*
X178395239Y-112852381D01*
X178157143Y-112852381D01*
X178061905Y-112804762D01*
X178014286Y-112757143D01*
X177633334Y-100152381D02*
X177300000Y-99676190D01*
X177061905Y-100152381D02*
X177061905Y-99152381D01*
X177442858Y-99152381D01*
X177538096Y-99200000D01*
X177585715Y-99247619D01*
X177633334Y-99342857D01*
X177633334Y-99485714D01*
X177585715Y-99580952D01*
X177538096Y-99628571D01*
X177442858Y-99676190D01*
X177061905Y-99676190D01*
X178490477Y-99152381D02*
X178300000Y-99152381D01*
X178204762Y-99200000D01*
X178157143Y-99247619D01*
X178061905Y-99390476D01*
X178014286Y-99580952D01*
X178014286Y-99961905D01*
X178061905Y-100057143D01*
X178109524Y-100104762D01*
X178204762Y-100152381D01*
X178395239Y-100152381D01*
X178490477Y-100104762D01*
X178538096Y-100057143D01*
X178585715Y-99961905D01*
X178585715Y-99723810D01*
X178538096Y-99628571D01*
X178490477Y-99580952D01*
X178395239Y-99533333D01*
X178204762Y-99533333D01*
X178109524Y-99580952D01*
X178061905Y-99628571D01*
X178014286Y-99723810D01*
X177633334Y-123012381D02*
X177300000Y-122536190D01*
X177061905Y-123012381D02*
X177061905Y-122012381D01*
X177442858Y-122012381D01*
X177538096Y-122060000D01*
X177585715Y-122107619D01*
X177633334Y-122202857D01*
X177633334Y-122345714D01*
X177585715Y-122440952D01*
X177538096Y-122488571D01*
X177442858Y-122536190D01*
X177061905Y-122536190D01*
X177966667Y-122012381D02*
X178633334Y-122012381D01*
X178204762Y-123012381D01*
X163017381Y-125261666D02*
X162541190Y-125595000D01*
X163017381Y-125833095D02*
X162017381Y-125833095D01*
X162017381Y-125452142D01*
X162065000Y-125356904D01*
X162112619Y-125309285D01*
X162207857Y-125261666D01*
X162350714Y-125261666D01*
X162445952Y-125309285D01*
X162493571Y-125356904D01*
X162541190Y-125452142D01*
X162541190Y-125833095D01*
X163017381Y-124785476D02*
X163017381Y-124595000D01*
X162969762Y-124499761D01*
X162922143Y-124452142D01*
X162779286Y-124356904D01*
X162588810Y-124309285D01*
X162207857Y-124309285D01*
X162112619Y-124356904D01*
X162065000Y-124404523D01*
X162017381Y-124499761D01*
X162017381Y-124690238D01*
X162065000Y-124785476D01*
X162112619Y-124833095D01*
X162207857Y-124880714D01*
X162445952Y-124880714D01*
X162541190Y-124833095D01*
X162588810Y-124785476D01*
X162636429Y-124690238D01*
X162636429Y-124499761D01*
X162588810Y-124404523D01*
X162541190Y-124356904D01*
X162445952Y-124309285D01*
X161112381Y-125737857D02*
X160636190Y-126071191D01*
X161112381Y-126309286D02*
X160112381Y-126309286D01*
X160112381Y-125928333D01*
X160160000Y-125833095D01*
X160207619Y-125785476D01*
X160302857Y-125737857D01*
X160445714Y-125737857D01*
X160540952Y-125785476D01*
X160588571Y-125833095D01*
X160636190Y-125928333D01*
X160636190Y-126309286D01*
X161112381Y-124785476D02*
X161112381Y-125356905D01*
X161112381Y-125071191D02*
X160112381Y-125071191D01*
X160255238Y-125166429D01*
X160350476Y-125261667D01*
X160398095Y-125356905D01*
X160112381Y-124166429D02*
X160112381Y-124071190D01*
X160160000Y-123975952D01*
X160207619Y-123928333D01*
X160302857Y-123880714D01*
X160493333Y-123833095D01*
X160731429Y-123833095D01*
X160921905Y-123880714D01*
X161017143Y-123928333D01*
X161064762Y-123975952D01*
X161112381Y-124071190D01*
X161112381Y-124166429D01*
X161064762Y-124261667D01*
X161017143Y-124309286D01*
X160921905Y-124356905D01*
X160731429Y-124404524D01*
X160493333Y-124404524D01*
X160302857Y-124356905D01*
X160207619Y-124309286D01*
X160160000Y-124261667D01*
X160112381Y-124166429D01*
X137617381Y-125737857D02*
X137141190Y-126071191D01*
X137617381Y-126309286D02*
X136617381Y-126309286D01*
X136617381Y-125928333D01*
X136665000Y-125833095D01*
X136712619Y-125785476D01*
X136807857Y-125737857D01*
X136950714Y-125737857D01*
X137045952Y-125785476D01*
X137093571Y-125833095D01*
X137141190Y-125928333D01*
X137141190Y-126309286D01*
X137617381Y-124785476D02*
X137617381Y-125356905D01*
X137617381Y-125071191D02*
X136617381Y-125071191D01*
X136760238Y-125166429D01*
X136855476Y-125261667D01*
X136903095Y-125356905D01*
X137617381Y-123833095D02*
X137617381Y-124404524D01*
X137617381Y-124118810D02*
X136617381Y-124118810D01*
X136760238Y-124214048D01*
X136855476Y-124309286D01*
X136903095Y-124404524D01*
X133807381Y-125737857D02*
X133331190Y-126071191D01*
X133807381Y-126309286D02*
X132807381Y-126309286D01*
X132807381Y-125928333D01*
X132855000Y-125833095D01*
X132902619Y-125785476D01*
X132997857Y-125737857D01*
X133140714Y-125737857D01*
X133235952Y-125785476D01*
X133283571Y-125833095D01*
X133331190Y-125928333D01*
X133331190Y-126309286D01*
X133807381Y-124785476D02*
X133807381Y-125356905D01*
X133807381Y-125071191D02*
X132807381Y-125071191D01*
X132950238Y-125166429D01*
X133045476Y-125261667D01*
X133093095Y-125356905D01*
X132902619Y-124404524D02*
X132855000Y-124356905D01*
X132807381Y-124261667D01*
X132807381Y-124023571D01*
X132855000Y-123928333D01*
X132902619Y-123880714D01*
X132997857Y-123833095D01*
X133093095Y-123833095D01*
X133235952Y-123880714D01*
X133807381Y-124452143D01*
X133807381Y-123833095D01*
X139522381Y-125737857D02*
X139046190Y-126071191D01*
X139522381Y-126309286D02*
X138522381Y-126309286D01*
X138522381Y-125928333D01*
X138570000Y-125833095D01*
X138617619Y-125785476D01*
X138712857Y-125737857D01*
X138855714Y-125737857D01*
X138950952Y-125785476D01*
X138998571Y-125833095D01*
X139046190Y-125928333D01*
X139046190Y-126309286D01*
X139522381Y-124785476D02*
X139522381Y-125356905D01*
X139522381Y-125071191D02*
X138522381Y-125071191D01*
X138665238Y-125166429D01*
X138760476Y-125261667D01*
X138808095Y-125356905D01*
X138522381Y-124452143D02*
X138522381Y-123833095D01*
X138903333Y-124166429D01*
X138903333Y-124023571D01*
X138950952Y-123928333D01*
X138998571Y-123880714D01*
X139093810Y-123833095D01*
X139331905Y-123833095D01*
X139427143Y-123880714D01*
X139474762Y-123928333D01*
X139522381Y-124023571D01*
X139522381Y-124309286D01*
X139474762Y-124404524D01*
X139427143Y-124452143D01*
X135712381Y-125737857D02*
X135236190Y-126071191D01*
X135712381Y-126309286D02*
X134712381Y-126309286D01*
X134712381Y-125928333D01*
X134760000Y-125833095D01*
X134807619Y-125785476D01*
X134902857Y-125737857D01*
X135045714Y-125737857D01*
X135140952Y-125785476D01*
X135188571Y-125833095D01*
X135236190Y-125928333D01*
X135236190Y-126309286D01*
X135712381Y-124785476D02*
X135712381Y-125356905D01*
X135712381Y-125071191D02*
X134712381Y-125071191D01*
X134855238Y-125166429D01*
X134950476Y-125261667D01*
X134998095Y-125356905D01*
X135045714Y-123928333D02*
X135712381Y-123928333D01*
X134664762Y-124166429D02*
X135379048Y-124404524D01*
X135379048Y-123785476D01*
X164922381Y-125737857D02*
X164446190Y-126071191D01*
X164922381Y-126309286D02*
X163922381Y-126309286D01*
X163922381Y-125928333D01*
X163970000Y-125833095D01*
X164017619Y-125785476D01*
X164112857Y-125737857D01*
X164255714Y-125737857D01*
X164350952Y-125785476D01*
X164398571Y-125833095D01*
X164446190Y-125928333D01*
X164446190Y-126309286D01*
X164922381Y-124785476D02*
X164922381Y-125356905D01*
X164922381Y-125071191D02*
X163922381Y-125071191D01*
X164065238Y-125166429D01*
X164160476Y-125261667D01*
X164208095Y-125356905D01*
X163922381Y-123880714D02*
X163922381Y-124356905D01*
X164398571Y-124404524D01*
X164350952Y-124356905D01*
X164303333Y-124261667D01*
X164303333Y-124023571D01*
X164350952Y-123928333D01*
X164398571Y-123880714D01*
X164493810Y-123833095D01*
X164731905Y-123833095D01*
X164827143Y-123880714D01*
X164874762Y-123928333D01*
X164922381Y-124023571D01*
X164922381Y-124261667D01*
X164874762Y-124356905D01*
X164827143Y-124404524D01*
X150582381Y-123951905D02*
X151391905Y-123951905D01*
X151487143Y-123904286D01*
X151534762Y-123856667D01*
X151582381Y-123761429D01*
X151582381Y-123570952D01*
X151534762Y-123475714D01*
X151487143Y-123428095D01*
X151391905Y-123380476D01*
X150582381Y-123380476D01*
X150582381Y-122999524D02*
X150582381Y-122380476D01*
X150963333Y-122713810D01*
X150963333Y-122570952D01*
X151010952Y-122475714D01*
X151058571Y-122428095D01*
X151153810Y-122380476D01*
X151391905Y-122380476D01*
X151487143Y-122428095D01*
X151534762Y-122475714D01*
X151582381Y-122570952D01*
X151582381Y-122856667D01*
X151534762Y-122951905D01*
X151487143Y-122999524D01*
X142113095Y-138658381D02*
X142113095Y-139467905D01*
X142160714Y-139563143D01*
X142208333Y-139610762D01*
X142303571Y-139658381D01*
X142494048Y-139658381D01*
X142589286Y-139610762D01*
X142636905Y-139563143D01*
X142684524Y-139467905D01*
X142684524Y-138658381D01*
X143684524Y-139658381D02*
X143113095Y-139658381D01*
X143398809Y-139658381D02*
X143398809Y-138658381D01*
X143303571Y-138801238D01*
X143208333Y-138896476D01*
X143113095Y-138944095D01*
X155791667Y-122212381D02*
X155791667Y-122926667D01*
X155744047Y-123069524D01*
X155648809Y-123164762D01*
X155505952Y-123212381D01*
X155410714Y-123212381D01*
X156791667Y-123212381D02*
X156220238Y-123212381D01*
X156505952Y-123212381D02*
X156505952Y-122212381D01*
X156410714Y-122355238D01*
X156315476Y-122450476D01*
X156220238Y-122498095D01*
X139046143Y-137072666D02*
X139093762Y-137120285D01*
X139141381Y-137263142D01*
X139141381Y-137358380D01*
X139093762Y-137501238D01*
X138998524Y-137596476D01*
X138903286Y-137644095D01*
X138712810Y-137691714D01*
X138569952Y-137691714D01*
X138379476Y-137644095D01*
X138284238Y-137596476D01*
X138189000Y-137501238D01*
X138141381Y-137358380D01*
X138141381Y-137263142D01*
X138189000Y-137120285D01*
X138236619Y-137072666D01*
X139141381Y-136120285D02*
X139141381Y-136691714D01*
X139141381Y-136406000D02*
X138141381Y-136406000D01*
X138284238Y-136501238D01*
X138379476Y-136596476D01*
X138427095Y-136691714D01*
X131807143Y-125261666D02*
X131854762Y-125309285D01*
X131902381Y-125452142D01*
X131902381Y-125547380D01*
X131854762Y-125690238D01*
X131759524Y-125785476D01*
X131664286Y-125833095D01*
X131473810Y-125880714D01*
X131330952Y-125880714D01*
X131140476Y-125833095D01*
X131045238Y-125785476D01*
X130950000Y-125690238D01*
X130902381Y-125547380D01*
X130902381Y-125452142D01*
X130950000Y-125309285D01*
X130997619Y-125261666D01*
X130997619Y-124880714D02*
X130950000Y-124833095D01*
X130902381Y-124737857D01*
X130902381Y-124499761D01*
X130950000Y-124404523D01*
X130997619Y-124356904D01*
X131092857Y-124309285D01*
X131188095Y-124309285D01*
X131330952Y-124356904D01*
X131902381Y-124928333D01*
X131902381Y-124309285D01*
X143618143Y-137072666D02*
X143665762Y-137120285D01*
X143713381Y-137263142D01*
X143713381Y-137358380D01*
X143665762Y-137501238D01*
X143570524Y-137596476D01*
X143475286Y-137644095D01*
X143284810Y-137691714D01*
X143141952Y-137691714D01*
X142951476Y-137644095D01*
X142856238Y-137596476D01*
X142761000Y-137501238D01*
X142713381Y-137358380D01*
X142713381Y-137263142D01*
X142761000Y-137120285D01*
X142808619Y-137072666D01*
X143046714Y-136215523D02*
X143713381Y-136215523D01*
X142665762Y-136453619D02*
X143380048Y-136691714D01*
X143380048Y-136072666D01*
X147153334Y-126209143D02*
X147105715Y-126256762D01*
X146962858Y-126304381D01*
X146867620Y-126304381D01*
X146724762Y-126256762D01*
X146629524Y-126161524D01*
X146581905Y-126066286D01*
X146534286Y-125875810D01*
X146534286Y-125732952D01*
X146581905Y-125542476D01*
X146629524Y-125447238D01*
X146724762Y-125352000D01*
X146867620Y-125304381D01*
X146962858Y-125304381D01*
X147105715Y-125352000D01*
X147153334Y-125399619D01*
X147486667Y-125304381D02*
X148153334Y-125304381D01*
X147724762Y-126304381D01*
X141477381Y-95353095D02*
X140477381Y-95353095D01*
X140477381Y-95115000D01*
X140525000Y-94972142D01*
X140620238Y-94876904D01*
X140715476Y-94829285D01*
X140905952Y-94781666D01*
X141048810Y-94781666D01*
X141239286Y-94829285D01*
X141334524Y-94876904D01*
X141429762Y-94972142D01*
X141477381Y-95115000D01*
X141477381Y-95353095D01*
X140572619Y-94400714D02*
X140525000Y-94353095D01*
X140477381Y-94257857D01*
X140477381Y-94019761D01*
X140525000Y-93924523D01*
X140572619Y-93876904D01*
X140667857Y-93829285D01*
X140763095Y-93829285D01*
X140905952Y-93876904D01*
X141477381Y-94448333D01*
X141477381Y-93829285D01*
X159107143Y-137326666D02*
X159154762Y-137374285D01*
X159202381Y-137517142D01*
X159202381Y-137612380D01*
X159154762Y-137755238D01*
X159059524Y-137850476D01*
X158964286Y-137898095D01*
X158773810Y-137945714D01*
X158630952Y-137945714D01*
X158440476Y-137898095D01*
X158345238Y-137850476D01*
X158250000Y-137755238D01*
X158202381Y-137612380D01*
X158202381Y-137517142D01*
X158250000Y-137374285D01*
X158297619Y-137326666D01*
X158202381Y-136993333D02*
X158202381Y-136374285D01*
X158583333Y-136707619D01*
X158583333Y-136564761D01*
X158630952Y-136469523D01*
X158678571Y-136421904D01*
X158773810Y-136374285D01*
X159011905Y-136374285D01*
X159107143Y-136421904D01*
X159154762Y-136469523D01*
X159202381Y-136564761D01*
X159202381Y-136850476D01*
X159154762Y-136945714D01*
X159107143Y-136993333D01*
X138787143Y-148756666D02*
X138834762Y-148804285D01*
X138882381Y-148947142D01*
X138882381Y-149042380D01*
X138834762Y-149185238D01*
X138739524Y-149280476D01*
X138644286Y-149328095D01*
X138453810Y-149375714D01*
X138310952Y-149375714D01*
X138120476Y-149328095D01*
X138025238Y-149280476D01*
X137930000Y-149185238D01*
X137882381Y-149042380D01*
X137882381Y-148947142D01*
X137930000Y-148804285D01*
X137977619Y-148756666D01*
X137882381Y-147851904D02*
X137882381Y-148328095D01*
X138358571Y-148375714D01*
X138310952Y-148328095D01*
X138263333Y-148232857D01*
X138263333Y-147994761D01*
X138310952Y-147899523D01*
X138358571Y-147851904D01*
X138453810Y-147804285D01*
X138691905Y-147804285D01*
X138787143Y-147851904D01*
X138834762Y-147899523D01*
X138882381Y-147994761D01*
X138882381Y-148232857D01*
X138834762Y-148328095D01*
X138787143Y-148375714D01*
X118467143Y-137326666D02*
X118514762Y-137374285D01*
X118562381Y-137517142D01*
X118562381Y-137612380D01*
X118514762Y-137755238D01*
X118419524Y-137850476D01*
X118324286Y-137898095D01*
X118133810Y-137945714D01*
X117990952Y-137945714D01*
X117800476Y-137898095D01*
X117705238Y-137850476D01*
X117610000Y-137755238D01*
X117562381Y-137612380D01*
X117562381Y-137517142D01*
X117610000Y-137374285D01*
X117657619Y-137326666D01*
X117562381Y-136469523D02*
X117562381Y-136660000D01*
X117610000Y-136755238D01*
X117657619Y-136802857D01*
X117800476Y-136898095D01*
X117990952Y-136945714D01*
X118371905Y-136945714D01*
X118467143Y-136898095D01*
X118514762Y-136850476D01*
X118562381Y-136755238D01*
X118562381Y-136564761D01*
X118514762Y-136469523D01*
X118467143Y-136421904D01*
X118371905Y-136374285D01*
X118133810Y-136374285D01*
X118038571Y-136421904D01*
X117990952Y-136469523D01*
X117943333Y-136564761D01*
X117943333Y-136755238D01*
X117990952Y-136850476D01*
X118038571Y-136898095D01*
X118133810Y-136945714D01*
X123698095Y-115332381D02*
X123698095Y-116141905D01*
X123745714Y-116237143D01*
X123793333Y-116284762D01*
X123888571Y-116332381D01*
X124079048Y-116332381D01*
X124174286Y-116284762D01*
X124221905Y-116237143D01*
X124269524Y-116141905D01*
X124269524Y-115332381D01*
X124698095Y-115427619D02*
X124745714Y-115380000D01*
X124840952Y-115332381D01*
X125079048Y-115332381D01*
X125174286Y-115380000D01*
X125221905Y-115427619D01*
X125269524Y-115522857D01*
X125269524Y-115618095D01*
X125221905Y-115760952D01*
X124650476Y-116332381D01*
X125269524Y-116332381D01*
X176466667Y-103034762D02*
X176609524Y-103082381D01*
X176847620Y-103082381D01*
X176942858Y-103034762D01*
X176990477Y-102987143D01*
X177038096Y-102891905D01*
X177038096Y-102796667D01*
X176990477Y-102701429D01*
X176942858Y-102653810D01*
X176847620Y-102606190D01*
X176657143Y-102558571D01*
X176561905Y-102510952D01*
X176514286Y-102463333D01*
X176466667Y-102368095D01*
X176466667Y-102272857D01*
X176514286Y-102177619D01*
X176561905Y-102130000D01*
X176657143Y-102082381D01*
X176895239Y-102082381D01*
X177038096Y-102130000D01*
X177371429Y-102082381D02*
X177609524Y-103082381D01*
X177800001Y-102368095D01*
X177990477Y-103082381D01*
X178228572Y-102082381D01*
X179133334Y-103082381D02*
X178561905Y-103082381D01*
X178847619Y-103082381D02*
X178847619Y-102082381D01*
X178752381Y-102225238D01*
X178657143Y-102320476D01*
X178561905Y-102368095D01*
X176466667Y-115734762D02*
X176609524Y-115782381D01*
X176847620Y-115782381D01*
X176942858Y-115734762D01*
X176990477Y-115687143D01*
X177038096Y-115591905D01*
X177038096Y-115496667D01*
X176990477Y-115401429D01*
X176942858Y-115353810D01*
X176847620Y-115306190D01*
X176657143Y-115258571D01*
X176561905Y-115210952D01*
X176514286Y-115163333D01*
X176466667Y-115068095D01*
X176466667Y-114972857D01*
X176514286Y-114877619D01*
X176561905Y-114830000D01*
X176657143Y-114782381D01*
X176895239Y-114782381D01*
X177038096Y-114830000D01*
X177371429Y-114782381D02*
X177609524Y-115782381D01*
X177800001Y-115068095D01*
X177990477Y-115782381D01*
X178228572Y-114782381D01*
X178561905Y-114877619D02*
X178609524Y-114830000D01*
X178704762Y-114782381D01*
X178942858Y-114782381D01*
X179038096Y-114830000D01*
X179085715Y-114877619D01*
X179133334Y-114972857D01*
X179133334Y-115068095D01*
X179085715Y-115210952D01*
X178514286Y-115782381D01*
X179133334Y-115782381D01*
X161226667Y-92874762D02*
X161369524Y-92922381D01*
X161607620Y-92922381D01*
X161702858Y-92874762D01*
X161750477Y-92827143D01*
X161798096Y-92731905D01*
X161798096Y-92636667D01*
X161750477Y-92541429D01*
X161702858Y-92493810D01*
X161607620Y-92446190D01*
X161417143Y-92398571D01*
X161321905Y-92350952D01*
X161274286Y-92303333D01*
X161226667Y-92208095D01*
X161226667Y-92112857D01*
X161274286Y-92017619D01*
X161321905Y-91970000D01*
X161417143Y-91922381D01*
X161655239Y-91922381D01*
X161798096Y-91970000D01*
X162131429Y-91922381D02*
X162369524Y-92922381D01*
X162560001Y-92208095D01*
X162750477Y-92922381D01*
X162988572Y-91922381D01*
X163274286Y-91922381D02*
X163893334Y-91922381D01*
X163560000Y-92303333D01*
X163702858Y-92303333D01*
X163798096Y-92350952D01*
X163845715Y-92398571D01*
X163893334Y-92493810D01*
X163893334Y-92731905D01*
X163845715Y-92827143D01*
X163798096Y-92874762D01*
X163702858Y-92922381D01*
X163417143Y-92922381D01*
X163321905Y-92874762D01*
X163274286Y-92827143D01*
X177061905Y-110712381D02*
X177061905Y-109712381D01*
X177300000Y-109712381D01*
X177442858Y-109760000D01*
X177538096Y-109855238D01*
X177585715Y-109950476D01*
X177633334Y-110140952D01*
X177633334Y-110283810D01*
X177585715Y-110474286D01*
X177538096Y-110569524D01*
X177442858Y-110664762D01*
X177300000Y-110712381D01*
X177061905Y-110712381D01*
X178585715Y-110712381D02*
X178014286Y-110712381D01*
X178300000Y-110712381D02*
X178300000Y-109712381D01*
X178204762Y-109855238D01*
X178109524Y-109950476D01*
X178014286Y-109998095D01*
X124991905Y-150312381D02*
X124991905Y-149312381D01*
X125372858Y-149312381D01*
X125468096Y-149360000D01*
X125515715Y-149407619D01*
X125563334Y-149502857D01*
X125563334Y-149645714D01*
X125515715Y-149740952D01*
X125468096Y-149788571D01*
X125372858Y-149836190D01*
X124991905Y-149836190D01*
X125944286Y-149407619D02*
X125991905Y-149360000D01*
X126087143Y-149312381D01*
X126325239Y-149312381D01*
X126420477Y-149360000D01*
X126468096Y-149407619D01*
X126515715Y-149502857D01*
X126515715Y-149598095D01*
X126468096Y-149740952D01*
X125896667Y-150312381D01*
X126515715Y-150312381D01*
X163091905Y-150312381D02*
X163091905Y-149312381D01*
X163472858Y-149312381D01*
X163568096Y-149360000D01*
X163615715Y-149407619D01*
X163663334Y-149502857D01*
X163663334Y-149645714D01*
X163615715Y-149740952D01*
X163568096Y-149788571D01*
X163472858Y-149836190D01*
X163091905Y-149836190D01*
X163996667Y-149312381D02*
X164615715Y-149312381D01*
X164282381Y-149693333D01*
X164425239Y-149693333D01*
X164520477Y-149740952D01*
X164568096Y-149788571D01*
X164615715Y-149883810D01*
X164615715Y-150121905D01*
X164568096Y-150217143D01*
X164520477Y-150264762D01*
X164425239Y-150312381D01*
X164139524Y-150312381D01*
X164044286Y-150264762D01*
X163996667Y-150217143D01*
X167462381Y-97162857D02*
X166986190Y-97496191D01*
X167462381Y-97734286D02*
X166462381Y-97734286D01*
X166462381Y-97353333D01*
X166510000Y-97258095D01*
X166557619Y-97210476D01*
X166652857Y-97162857D01*
X166795714Y-97162857D01*
X166890952Y-97210476D01*
X166938571Y-97258095D01*
X166986190Y-97353333D01*
X166986190Y-97734286D01*
X167462381Y-96210476D02*
X167462381Y-96781905D01*
X167462381Y-96496191D02*
X166462381Y-96496191D01*
X166605238Y-96591429D01*
X166700476Y-96686667D01*
X166748095Y-96781905D01*
X166462381Y-95353333D02*
X166462381Y-95543810D01*
X166510000Y-95639048D01*
X166557619Y-95686667D01*
X166700476Y-95781905D01*
X166890952Y-95829524D01*
X167271905Y-95829524D01*
X167367143Y-95781905D01*
X167414762Y-95734286D01*
X167462381Y-95639048D01*
X167462381Y-95448571D01*
X167414762Y-95353333D01*
X167367143Y-95305714D01*
X167271905Y-95258095D01*
X167033810Y-95258095D01*
X166938571Y-95305714D01*
X166890952Y-95353333D01*
X166843333Y-95448571D01*
X166843333Y-95639048D01*
X166890952Y-95734286D01*
X166938571Y-95781905D01*
X167033810Y-95829524D01*
M02*
